# xmcd
#
# Track frame offsets: 
#        150
#        18745
#        33049
#        47692
#        60854
#        77094
#        89433
#        104462
#        122236
#        136844
#        149779
#        165139
#        184943
#        198495
#        212750
#        229633
#        243847
#        256396
#        271827
#        280879
#        299329
#        315465
#
# Disc length: 4453 seconds
#
# Revision: 0
# Processed by: cddbd v1.5.1PL2 Copyright (c) Steve Scherf et al.
# Submitted via: ExactAudioCopy v0.95a5
#
DISCID=37116316
DTITLE=Various Artist - Hot97 Reggaeton Vol.7
DYEAR=2006
DGENRE=Reggaeton
TTITLE0=No Artist - Reggaeton
TTITLE1=Daddy Yankee - Rompe
TTITLE2=Alexis Y Fido - Eso Ehh
TTITLE3=Wisin Y Yandel - Paleta
TTITLE4=Yaviah - En La Mia
TTITLE5=Alexis Y Fido - Perro Caliente
TTITLE6=Tito (El Bambino) - La Bottellita
TTITLE7=Voz - Navida
TTITLE8=Wisin Y Yandel - Llame Pa Verte
TTITLE9=Divino - Me Trancaron
TTITLE10=Ghett (Buddha Family) - Castigo
TTITLE11=Hector (El Father) - Tiraera
TTITLE12=Yaga Y Mackie - Muevete feat. Pitbull
TTITLE13=Speedy Y Don Chezina - Reggaeton Fury
TTITLE14=Calle 13 Y Voltio feat. 3 6 Mafia
TTITLE15=Alexis Y Fido - El Pantalon feat. Zion Y Lennox
TTITLE16=Wisin - Sensacion feat. Tony Dize
TTITLE17=Wisin Y Yandel - Noche de Sexo feat. Romeo
TTITLE18=Pharrel - Mamacita
TTITLE19=Mexicano Y Taino
TTITLE20=Don Chezina - Gauta Gatos
TTITLE21=Temp Bonus
EXTD=
EXTT0=
EXTT1=
EXTT2=
EXTT3=
EXTT4=
EXTT5=
EXTT6=
EXTT7=
EXTT8=
EXTT9=
EXTT10=
EXTT11=
EXTT12=
EXTT13=
EXTT14=
EXTT15=
EXTT16=
EXTT17=
EXTT18=
EXTT19=
EXTT20=
EXTT21=
PLAYORDER=
